<?xml version="1.0" standalone="no"?>
<!DOCTYPE svg PUBLIC "-//W3C//DTD SVG 20010904//EN"
 "http://www.w3.org/TR/2001/REC-SVG-20010904/DTD/svg10.dtd">
<svg version="1.0" xmlns="http://www.w3.org/2000/svg"
 width="300.000000pt" height="213.000000pt" viewBox="0 0 300.000000 213.000000"
 preserveAspectRatio="xMidYMid meet">
<metadata>
Created by potrace 1.10, written by Peter Selinger 2001-2011
</metadata>
<g transform="translate(0.000000,213.000000) scale(0.100000,-0.100000)"
fill="#000000" stroke="none">
<path d="M1269 2034 c-225 -40 -419 -155 -575 -339 -88 -104 -145 -211 -190
-361 -25 -81 -27 -104 -28 -259 0 -149 2 -180 23 -250 51 -175 135 -320 255
-441 131 -132 274 -214 456 -261 138 -36 333 -36 473 0 329 87 585 323 690
637 36 109 48 186 48 313 -1 278 -97 507 -296 702 -222 217 -546 316 -856 259z
m336 -18 c11 -2 19 -9 17 -17 -2 -9 0 -10 11 -1 10 9 31 7 88 -9 87 -24 129
-41 129 -51 0 -5 -7 -8 -15 -8 -8 0 -15 4 -15 9 0 5 -11 11 -25 13 -38 8 -30
-5 15 -24 22 -9 40 -12 40 -7 0 69 337 -201 397 -318 10 -21 35 -67 54 -103
47 -89 61 -134 56 -178 -2 -20 -2 -29 0 -19 2 9 8 17 11 17 17 0 32 -117 32
-255 0 -134 -5 -173 -30 -240 -5 -11 -18 -49 -30 -85 -26 -78 -38 -106 -64
-144 -11 -17 -27 -44 -36 -60 -25 -51 -111 -144 -189 -206 -24 -19 -49 -39
-55 -45 -27 -23 -58 -35 -79 -32 -12 2 -16 2 -9 0 37 -13 -6 -36 -153 -84
-203 -67 -469 -62 -653 12 -41 16 -80 29 -88 29 -8 0 -14 5 -14 10 0 6 -7 10
-15 10 -8 0 -15 5 -15 10 0 6 4 10 9 10 6 0 13 -4 16 -10 3 -5 16 -10 28 -10
17 0 19 2 7 9 -8 6 -17 8 -21 5 -4 -2 -10 3 -13 11 -4 12 -9 13 -24 4 -26 -16
-89 28 -196 135 -113 114 -119 121 -169 222 -64 127 -90 208 -83 252 4 24 3
32 -2 23 -5 -7 -12 -9 -14 -5 -12 21 -30 176 -25 216 3 23 9 69 13 100 4 39
11 55 19 52 9 -4 11 3 7 21 -2 15 1 45 8 68 7 23 14 49 17 57 3 12 6 12 12 1
6 -9 11 -10 15 -2 4 6 2 11 -3 11 -19 0 -12 26 31 111 38 78 168 249 189 249
16 0 10 -16 -13 -37 -33 -29 -78 -82 -78 -91 0 -4 -9 -14 -20 -22 -11 -8 -20
-20 -20 -27 0 -7 -4 -13 -10 -13 -5 0 -10 -6 -10 -13 0 -7 -9 -29 -20 -50 -11
-20 -16 -37 -12 -37 5 0 15 17 23 37 31 81 187 254 287 318 58 38 75 55 52 55
-5 0 -10 -5 -10 -10 0 -6 -10 -14 -23 -19 -12 -5 -46 -28 -75 -51 -30 -23 -57
-39 -60 -35 -8 8 31 41 98 85 25 16 50 34 57 40 16 13 43 13 43 -1 0 -5 5 -7
12 -3 9 6 9 9 0 12 -25 8 -11 23 16 17 17 -3 40 0 58 10 18 9 23 15 12 15 -9
0 -20 -4 -23 -10 -3 -5 -14 -10 -23 -10 -13 0 -12 4 7 19 20 15 174 56 281 75
28 5 233 -1 265 -8z"/>
<path d="M1320 1998 c0 -4 4 -8 9 -8 6 0 12 4 15 8 3 5 -1 9 -9 9 -8 0 -15 -4
-15 -9z"/>
<path d="M1545 2000 c3 -5 21 -10 38 -10 24 0 28 3 17 10 -20 13 -63 13 -55 0z"/>
<path d="M1278 1993 c6 -2 18 -2 25 0 6 3 1 5 -13 5 -14 0 -19 -2 -12 -5z"/>
<path d="M1193 1973 c9 -2 25 -2 35 0 9 3 1 5 -18 5 -19 0 -27 -2 -17 -5z"/>
<path d="M1288 1970 c-169 -21 -341 -112 -490 -261 -80 -80 -136 -158 -164
-228 -17 -42 -28 -51 -38 -28 -3 6 -3 1 0 -12 3 -13 2 -33 -4 -45 -52 -111
-71 -297 -48 -478 7 -56 36 -151 49 -165 4 -3 7 -15 7 -25 0 -10 3 -18 8 -18
6 0 42 -72 42 -85 0 -10 75 -111 115 -154 54 -60 73 -77 122 -114 42 -32 53
-47 33 -47 -13 0 -62 41 -130 111 -92 93 -115 122 -145 182 -15 31 -33 57 -38
57 -6 0 -3 -8 6 -17 8 -10 19 -30 22 -45 4 -16 11 -28 16 -28 5 0 9 -4 9 -10
0 -19 92 -130 143 -175 103 -88 112 -95 120 -95 4 0 7 5 7 10 0 6 7 10 15 10
18 0 20 -17 3 -23 -7 -2 -9 -8 -5 -13 4 -5 12 -2 16 5 7 11 26 5 91 -28 45
-22 93 -41 106 -41 12 0 26 -5 29 -10 3 -6 17 -10 31 -10 14 0 24 -6 24 -15 0
-8 6 -12 15 -9 8 3 55 1 105 -6 99 -13 249 -1 305 25 17 7 53 19 80 26 44 11
171 71 185 88 3 3 16 12 28 19 26 14 46 7 22 -8 -8 -5 -12 -12 -8 -15 8 -9 39
17 133 110 91 92 115 120 115 137 0 7 -7 1 -17 -12 -22 -34 -192 -200 -203
-200 -18 0 -10 19 13 31 55 28 204 205 233 278 9 23 20 41 25 41 5 0 9 9 9 20
0 11 5 20 10 20 6 0 10 10 10 23 0 13 5 28 10 33 6 6 12 19 14 30 2 10 7 30
10 44 3 14 9 39 12 55 16 69 12 279 -6 360 -19 87 -38 144 -51 159 -5 6 -9 18
-9 28 0 10 -4 18 -9 18 -5 0 -19 21 -31 48 -12 26 -36 65 -53 87 -55 71 -171
186 -209 208 -40 22 -49 37 -22 37 8 0 12 5 9 10 -5 8 -11 7 -21 0 -10 -9 -21
-9 -44 1 -32 15 -38 25 -17 32 6 2 8 8 4 13 -4 5 -12 2 -17 -5 -7 -12 -16 -11
-52 6 -137 64 -332 87 -530 63z m332 -22 c266 -50 509 -240 631 -493 193 -401
55 -887 -319 -1130 -88 -57 -159 -88 -260 -117 -103 -29 -333 -31 -432 -5
-271 73 -473 236 -593 478 -64 130 -89 242 -89 394 0 187 45 336 147 490 201
301 558 451 915 383z"/>
<path d="M1015 1505 l-430 -424 150 -153 c83 -84 276 -280 430 -436 l280 -282
433 432 432 433 -427 427 c-236 236 -430 428 -433 428 -3 -1 -198 -192 -435
-425z m460 369 c14 -9 25 -23 25 -30 0 -8 4 -14 9 -14 9 0 59 -49 515 -508
l248 -251 -406 -403 c-224 -222 -412 -404 -419 -406 -13 -3 -817 798 -817 814
0 11 803 814 814 814 4 0 18 -7 31 -16z"/>
<path d="M1018 1253 c-20 -24 -19 -323 1 -347 21 -26 183 -23 226 4 18 11 36
28 39 37 5 13 10 12 29 -9 12 -14 32 -31 45 -37 30 -16 112 -12 134 7 15 12
20 12 46 -4 54 -31 89 4 53 55 -16 22 -19 37 -14 61 l6 33 23 -45 c46 -91 125
-133 206 -109 30 9 43 10 54 0 11 -9 19 -8 37 4 21 13 23 21 21 93 -2 67 -5
81 -24 96 -29 23 -82 23 -111 0 -28 -24 -20 -50 21 -65 35 -13 38 -22 11 -37
-32 -17 -65 -18 -93 -4 -36 18 -48 43 -48 97 0 91 85 131 154 72 26 -22 32
-24 50 -11 31 20 31 45 0 77 -29 30 -78 49 -127 49 -65 0 -141 -66 -159 -137
-9 -39 -12 -42 -38 -37 -21 5 -31 1 -44 -17 -15 -22 -17 -22 -32 -7 -15 15
-14 19 10 51 34 45 33 81 -3 118 -24 23 -38 29 -74 29 -39 0 -49 -5 -76 -35
-35 -40 -38 -64 -14 -106 16 -28 16 -29 -7 -54 l-25 -26 -18 22 c-13 17 -15
25 -6 36 27 32 11 102 -33 143 -19 17 -35 20 -113 20 -75 0 -95 -3 -107 -17z
m431 -14 c60 -21 61 -77 2 -126 l-26 -22 44 -45 c48 -48 61 -47 61 7 0 17 5
27 15 27 19 0 19 -36 1 -70 -12 -23 -10 -28 17 -57 28 -30 29 -33 11 -33 -12
0 -29 9 -39 19 -17 20 -17 20 -47 -2 -55 -40 -146 -20 -168 39 -12 31 3 73 37
101 l26 21 -22 27 c-34 44 -25 87 24 113 25 14 26 14 64 1z m-210 -25 c26 -33
27 -75 2 -105 -19 -23 -19 -24 5 -46 35 -32 34 -94 -2 -122 -23 -18 -41 -21
-120 -21 l-94 0 0 160 0 160 94 0 c90 0 96 -1 115 -26z m595 14 c31 -14 60
-54 46 -63 -6 -4 -24 5 -41 19 -36 30 -101 35 -137 10 -67 -47 -70 -160 -6
-219 54 -50 174 -19 174 45 0 28 -3 30 -35 30 -24 0 -35 5 -35 15 0 11 12 15
50 15 l50 0 0 -80 c0 -64 -3 -80 -15 -80 -8 0 -15 9 -15 20 0 20 0 20 -32 0
-19 -11 -51 -20 -74 -20 -147 0 -200 222 -72 300 37 22 103 26 142 8z"/>
<path d="M1382 1208 c-17 -17 -15 -45 5 -72 16 -22 19 -22 41 -8 33 22 45 48
32 72 -12 23 -59 27 -78 8z m48 -33 c0 -8 -7 -15 -15 -15 -8 0 -15 7 -15 15 0
8 7 15 15 15 8 0 15 -7 15 -15z"/>
<path d="M1372 1057 c-29 -31 -29 -81 0 -101 29 -20 61 -20 99 0 l31 15 -49
54 c-26 29 -51 53 -54 54 -3 1 -15 -9 -27 -22z m71 -78 c-20 -20 -63 -2 -63
25 0 33 20 37 49 9 19 -17 23 -25 14 -34z"/>
<path d="M1060 1149 l0 -61 71 4 c76 4 99 19 99 63 0 39 -30 55 -103 55 l-67
0 0 -61z m140 6 c0 -19 -6 -23 -47 -28 -57 -6 -63 -3 -63 28 0 20 6 24 38 27
56 5 72 -1 72 -27z"/>
<path d="M1060 1010 l0 -60 74 0 c84 0 106 13 106 60 0 43 -32 60 -112 60
l-68 0 0 -60z m144 15 c16 -16 12 -41 -7 -47 -7 -2 -32 -4 -57 -4 -43 1 -45 2
-48 34 l-3 32 50 0 c31 0 55 -6 65 -15z"/>
<path d="M1685 1969 c51 -10 92 -10 50 1 -16 4 -43 8 -60 8 -25 0 -24 -2 10
-9z"/>
<path d="M1135 1960 c3 -5 12 -7 20 -3 21 7 19 13 -6 13 -11 0 -18 -4 -14 -10z"/>
<path d="M1910 1880 c0 -5 7 -10 16 -10 8 0 12 5 9 10 -3 6 -10 10 -16 10 -5
0 -9 -4 -9 -10z"/>
<path d="M1999 1818 c51 -33 211 -199 211 -219 0 -5 4 -9 8 -9 5 0 13 -12 20
-27 l12 -28 -6 29 c-9 49 -176 236 -224 251 -11 3 -20 11 -20 16 0 5 -8 9 -17
9 -12 0 -7 -7 16 -22z"/>
<path d="M2256 1515 c4 -8 10 -15 15 -15 4 0 6 7 3 15 -4 8 -10 15 -15 15 -4
0 -6 -7 -3 -15z"/>
<path d="M2320 1380 c0 -5 5 -10 10 -10 6 0 10 5 10 10 0 6 -4 10 -10 10 -5 0
-10 -4 -10 -10z"/>
<path d="M2365 1229 c6 -30 15 -37 15 -11 0 11 -4 23 -9 27 -6 3 -8 -4 -6 -16z"/>
<path d="M506 1143 c-8 -50 -8 -138 0 -130 7 6 16 167 10 167 -2 0 -6 -17 -10
-37z"/>
<path d="M2363 924 c-3 -8 -2 -19 4 -25 5 -5 9 1 11 16 2 28 -6 33 -15 9z"/>
<path d="M540 800 c0 -5 5 -10 11 -10 5 0 7 5 4 10 -3 6 -8 10 -11 10 -2 0 -4
-4 -4 -10z"/>
<path d="M565 740 c3 -5 8 -10 11 -10 2 0 4 5 4 10 0 6 -5 10 -11 10 -5 0 -7
-4 -4 -10z"/>
<path d="M2267 641 c-15 -22 -29 -52 -32 -68 -5 -28 -5 -28 6 -3 15 35 30 61
47 88 8 12 12 22 9 22 -2 0 -16 -18 -30 -39z"/>
<path d="M1940 280 c0 -5 5 -10 10 -10 6 0 10 5 10 10 0 6 -4 10 -10 10 -5 0
-10 -4 -10 -10z"/>
<path d="M1860 240 c-12 -8 -10 -10 8 -10 13 0 20 4 17 10 -7 12 -6 12 -25 0z"/>
<path d="M1070 206 c19 -7 39 -10 45 -7 11 6 -29 19 -60 19 -11 1 -5 -5 15
-12z"/>
<path d="M1790 211 c-14 -4 -20 -9 -15 -12 6 -3 26 0 45 7 37 14 14 17 -30 5z"/>
<path d="M1725 180 c4 -6 11 -8 16 -5 14 9 11 15 -7 15 -8 0 -12 -5 -9 -10z"/>
<path d="M422 1150 c0 -14 2 -19 5 -12 2 6 2 18 0 25 -3 6 -5 1 -5 -13z"/>
</g>
</svg>
